<svg width="64" height="64" viewBox="0 0 64 64" fill="none" xmlns="http://www.w3.org/2000/svg">
<circle cx="32" cy="32" r="32" fill="#333333"/>
<path d="M22.9614 41.0379L22.0941 37.1742L29.6243 29.6243L26.7265 26.7266L17.5996 35.8732L19.5314 44.4679L28.1458 46.3997L29.7425 44.8227L26.8448 41.9052L22.9614 41.0379Z" fill="white"/>
<path d="M35.8733 17.5996L34.2766 19.1963L37.1744 22.0941L41.038 22.9614L41.9054 26.8448L34.3752 34.375L37.2729 37.2727L46.3999 28.1458L44.468 19.5314L35.8733 17.5996Z" fill="white"/>
<path d="M22.0943 26.8453L22.9617 22.9619L26.845 22.0946L34.3752 29.6248L37.273 26.727L28.1461 17.6001L19.5317 19.5319L17.5999 28.1463L19.1966 29.743L22.0943 26.8453Z" fill="white"/>
<path d="M41.9057 37.1746L41.0384 41.0383L37.1747 41.9056L29.6248 34.3754L26.7271 37.2732L35.8737 46.4001L44.4683 44.4683L46.4002 35.8736L44.8232 34.2769L41.9057 37.1746Z" fill="white"/>
<path d="M34.375 34.374L46.3997 28.1448L41.0379 22.9604L41.9052 26.8438L34.375 34.374Z" fill="#DDDDDD"/>
<path d="M34.3752 29.6243L28.1461 17.5996L22.9617 22.9614L26.845 22.0941L34.3752 29.6243Z" fill="#DDDDDD"/>
<path d="M29.6243 29.6245L17.5996 35.8734L22.9614 41.0381L22.0941 37.1744L29.6243 29.6245Z" fill="#DDDDDD"/>
<path d="M29.624 34.3755L35.8729 46.4002L41.0376 41.0383L37.1739 41.9057L29.624 34.3755Z" fill="#DDDDDD"/>
<path d="M34.2766 19.1963L37.1744 22.0941L35.8733 17.5996L34.2766 19.1963Z" fill="#DDDDDD"/>
<path d="M19.1963 29.742L22.0941 26.8442L17.5996 28.1453L19.1963 29.742Z" fill="#DDDDDD"/>
<path d="M28.1462 46.4002L29.743 44.8232L26.8452 41.9058L28.1462 46.4002Z" fill="#DDDDDD"/>
<path d="M44.8225 34.2769L41.905 37.1746L46.3995 35.8736L44.8225 34.2769Z" fill="#DDDDDD"/>
<path d="M34.375 34.3742L37.2728 37.2719L46.3997 28.145L34.375 34.3742Z" fill="white"/>
<path d="M37.2729 26.7265L28.146 17.5996L34.3752 29.6243L37.2729 26.7265Z" fill="white"/>
<path d="M26.7265 26.7266L17.5996 35.8732L29.6243 29.6243L26.7265 26.7266Z" fill="white"/>
<path d="M26.7271 37.2732L35.8737 46.4002L29.6248 34.3755L26.7271 37.2732Z" fill="white"/>
<path d="M46.3998 28.1447L44.468 19.5303L37.1743 22.0929L41.038 22.9603L46.3998 28.1447Z" fill="white"/>
<path d="M22.0939 26.8448L22.9612 22.9614L28.1456 17.5996L19.5312 19.5314L22.0939 26.8448Z" fill="white"/>
<path d="M17.5996 35.8726L19.5314 44.4672L26.8448 41.9046L22.9614 41.0373L17.5996 35.8726Z" fill="white"/>
<path d="M41.0382 41.0385L35.8735 46.4003L44.4682 44.4685L41.9056 37.1748L41.0382 41.0385Z" fill="white"/>
<path d="M35.8735 17.5996L37.1746 22.0941L44.4682 19.5314L35.8735 17.5996Z" fill="#EEEEEE"/>
<path d="M19.5314 19.5303L17.5996 28.1447L22.0941 26.8436L19.5314 19.5303Z" fill="#EEEEEE"/>
<path d="M19.5312 44.4684L28.1456 46.4002L26.8446 41.9058L19.5312 44.4684Z" fill="#EEEEEE"/>
<path d="M41.905 37.1736L44.4677 44.4672L46.3995 35.8726L41.905 37.1736Z" fill="#EEEEEE"/>
</svg>
