<svg width="64" height="64" viewBox="0 0 64 64" fill="none" xmlns="http://www.w3.org/2000/svg">
<circle cx="32" cy="32" r="32" fill="#30AB85"/>
<path fill-rule="evenodd" clip-rule="evenodd" d="M35.2537 34.0245V34.0212C35.0714 34.0347 34.1321 34.0925 32.0364 34.0925C30.3632 34.0925 29.1853 34.0415 28.7712 34.0212V34.0262C22.3301 33.7358 17.5225 32.5857 17.5225 31.2097C17.5225 29.8355 22.3301 28.6854 28.7712 28.3898V32.8813C29.192 32.9119 30.398 32.9849 32.0646 32.9849C34.0642 32.9849 35.0665 32.9 35.2537 32.883V28.3932C41.6815 28.6871 46.4775 29.8372 46.4775 31.2097C46.4775 32.5857 41.6815 33.7324 35.2537 34.0245ZM35.2537 27.9261V23.9069H44.2228V17.7778H19.802V23.9069H28.7712V27.9244C21.4819 28.2675 16 29.7488 16 31.5223C16 33.2958 21.4819 34.7754 28.7712 35.1202V48.0001H35.2537V35.1168C42.5314 34.7737 48 33.2941 48 31.5223C48 29.7505 42.5314 28.2709 35.2537 27.9261Z" fill="white"/>
</svg>
