<svg width="64" height="64" viewBox="0 0 64 64" fill="none" xmlns="http://www.w3.org/2000/svg">
<path d="M63.0401 39.7441C58.7687 56.8852 41.4023 67.3178 24.2561 63.0401C7.10981 58.7623 -3.31803 41.4046 0.96005 24.2618C5.23813 7.11912 22.5959 -3.31832 39.7383 0.96008C56.8807 5.23848 67.3181 22.5972 63.0401 39.7441Z" fill="#F88805"/>
<path d="M44.7292 27.5928C45.2943 23.7262 42.4141 21.6474 38.4752 20.2608L39.7545 15.0233L36.6343 14.2288L35.3881 19.3287C34.5688 19.12 33.7268 18.9219 32.8899 18.7278L34.1407 13.5942L31.0237 12.7998L29.7481 18.0353L23.4566 16.4424L22.6266 19.8482C22.6266 19.8482 24.9411 20.3904 24.8922 20.4241C26.1555 20.7466 26.3846 21.6009 26.346 22.2785L22.8455 36.6269C22.6908 37.0192 22.2991 37.6073 21.4161 37.3824C21.4474 37.4289 19.1488 36.8013 19.1488 36.8013L17.6001 40.4564L23.8825 42.0778L22.5913 47.3763L25.7069 48.1708L26.9862 42.9291C27.839 43.1651 28.6634 43.383 29.4712 43.5882L28.1971 48.8054L31.3167 49.5998L32.6079 44.3114C37.9275 45.34 41.9277 44.9251 43.6092 40.0109C44.9657 36.0519 43.5427 33.768 40.7437 32.278C42.7819 31.7956 44.317 30.4259 44.7266 27.5948L44.7292 27.5928ZM37.5997 37.809C36.6332 41.768 30.1134 39.6286 27.9979 39.091L29.7109 32.0722C31.8253 32.6115 38.6054 33.6797 37.6008 37.8084L37.5997 37.809ZM38.5673 27.5367C37.6878 31.1398 32.2591 29.3092 30.4972 28.86L32.0482 22.4924C33.8106 22.9422 39.4821 23.7796 38.5651 27.5364" fill="white"/>
</svg>
