<svg width="64" height="64" viewBox="0 0 64 64" fill="none" xmlns="http://www.w3.org/2000/svg">
<circle cx="32" cy="32" r="32" fill="#333333"/>
<path d="M32.0477 27.5012L35.9418 29.753V34.2567L32.0477 36.5085L28.1537 34.2567V29.753L32.0477 27.5012Z" fill="white"/>
<path fill-rule="evenodd" clip-rule="evenodd" d="M26.7429 18.1767L29.0559 22.1882L32.0476 20.4591L42.0455 26.2301V29.682L46.6681 23.5554L32.0478 15.1113L26.7429 18.1767ZM42.0455 26.2238V26.2301L32.4592 15.5688L42.0455 26.2238Z" fill="white"/>
<path d="M25.0445 39.4906L25.0422 39.4909L22.0496 37.7632V26.2239L25.0445 24.4948L20.1906 23.8936L25.0445 24.4928L22.73 20.4861L17.4238 23.5509L17.4221 23.5507V40.4364L17.4244 40.4361L22.73 43.4989L25.0445 39.4906Z" fill="white"/>
<path d="M46.6672 34.3134H42.0397L42.0391 37.7716L32.0501 43.5393L32.0445 43.5405L29.0522 41.8129L29.0512 41.8106L29.0496 41.8114L26.7351 45.8157L32.041 48.8802L32.0445 48.8886L46.661 40.4412L46.6666 40.44L46.6672 34.3134Z" fill="white"/>
<path d="M46.6783 23.5554L42.0455 29.682H46.6783V23.5554Z" fill="white"/>
<path d="M32.0476 27.501L35.9417 29.7528V34.2564L32.0476 36.5083L28.1536 34.2564V29.7528L32.0476 27.501Z" fill="#DDDDDD"/>
<path d="M26.7429 18.177L29.0559 22.1885L32.0476 15.1113L26.7429 18.177Z" fill="white"/>
<path d="M22.73 43.4992L25.0445 39.4909L17.4221 40.4351L22.73 43.4992Z" fill="white"/>
<path d="M42.0397 34.3137H46.6672V40.4403L42.0397 34.3137Z" fill="white"/>
<path d="M29.0559 22.1885L32.0476 20.4594L42.0457 26.2305L32.0476 15.1113L29.0559 22.1885Z" fill="#EEEEEE"/>
<path d="M25.0445 39.4925L22.0496 37.7634V26.2212L17.4221 40.4367L25.0445 39.4925Z" fill="#EEEEEE"/>
<path d="M42.0391 37.7719V34.3137L46.6666 40.4403L32.0442 43.543L42.0391 37.7719Z" fill="#EEEEEE"/>
<path d="M32.0474 15.1113L42.0455 26.2241V29.6822L46.6681 23.5557L32.0474 15.1113Z" fill="white"/>
<path d="M17.4221 40.4396L22.0496 26.2242L25.0445 24.4951L17.4221 23.551V40.4396Z" fill="white"/>
<path d="M32.0445 43.5408L46.6669 40.4381L32.0445 48.8889L29.0496 41.8117L32.0445 43.5408Z" fill="white"/>
<path d="M17.4221 23.5525L25.0445 24.4935L22.73 20.4868L17.4221 23.5525Z" fill="#EEEEEE"/>
<path d="M46.6783 23.5561L42.0459 29.6826H46.6783V23.5561Z" fill="#EEEEEE"/>
<path d="M29.0512 41.8113L32.043 48.882L26.7351 45.8163L29.0512 41.8113Z" fill="#EEEEEE"/>
</svg>
