<svg width="64" height="64" viewBox="0 0 64 64" fill="none" xmlns="http://www.w3.org/2000/svg">
<circle cx="32" cy="32" r="32" fill="#2A91E0"/>
<path d="M34.1271 18.2876C37.3725 16.2426 41.7128 16.6335 44.5396 19.4604C47.8201 22.7408 47.8201 28.0595 44.5396 31.34L36.6199 39.2598L33.9799 36.6199L41.8997 28.7001C43.7222 26.8776 43.7222 23.9228 41.8997 22.1003C40.5465 20.7471 38.5691 20.3987 36.8944 21.0549L34.1271 18.2876Z" fill="white"/>
<path d="M27.3801 24.7402L19.4604 32.66C16.1799 35.9405 16.1799 41.2592 19.4604 44.5396C22.5178 47.597 27.3456 47.8049 30.6438 45.1634L27.9741 42.4937C26.1621 43.6942 23.6967 43.4962 22.1003 41.8997C20.2778 40.0772 20.2778 37.1224 22.1003 35.2999L30.0201 27.3801L27.3801 24.7402Z" fill="white"/>
<path d="M31.34 19.4604L39.2598 27.3801L36.6199 30.0201L28.7001 22.1003C26.8776 20.2778 23.9228 20.2778 22.1003 22.1003C20.7471 23.4535 20.3987 25.4309 21.0549 27.1055L18.2876 29.8729C16.2426 26.6275 16.6335 22.2872 19.4604 19.4604C22.7408 16.1799 28.0595 16.1799 31.34 19.4604Z" fill="white"/>
<path d="M24.7402 36.6199L32.66 44.5396C35.9405 47.8201 41.2592 47.8201 44.5396 44.5396C47.3665 41.7128 47.7574 37.3725 45.7124 34.1271L42.9451 36.8944C43.6013 38.5691 43.2529 40.5465 41.8997 41.8997C40.0772 43.7222 37.1224 43.7222 35.2999 41.8997L27.3801 33.9799L24.7402 36.6199Z" fill="white"/>
</svg>
