<svg width="64" height="64" viewBox="0 0 64 64" fill="none" xmlns="http://www.w3.org/2000/svg">
<circle cx="32" cy="32" r="32" fill="#34C266"/>
<path d="M48.3238 27.2374C46.2644 20.1667 39.7356 15 32 15C29.2094 15 26.8901 17.0171 26.4202 19.6728L29.4251 18.8676C30.6804 18.5313 31.9707 19.2762 32.3071 20.5315C32.6434 21.7867 31.8985 23.077 30.6432 23.4134L27.594 24.2304C28.6328 25.5132 30.2206 26.3333 32 26.3333C33.2091 26.3333 34.3374 25.8074 35.3247 25.1095C36.7571 24.0969 38.4343 23.5 40.5 23.5C43.7551 23.5 46.6256 24.9821 48.3238 27.2374Z" fill="white"/>
<path d="M27.2374 15.6762C20.1667 17.7356 15 24.2644 15 32C15 34.7905 17.0171 37.11 19.6728 37.5798L18.8676 34.5748C18.5312 33.3195 19.2762 32.0293 20.5314 31.6929C21.7867 31.3566 23.0769 32.1015 23.4133 33.3568L24.2304 36.406C25.5132 35.3671 26.3333 33.7794 26.3333 32C26.3333 30.7909 25.8074 29.6626 25.1095 28.6753C24.0969 27.2429 23.5 25.5657 23.5 23.5C23.5 20.2449 24.9821 17.3744 27.2374 15.6762Z" fill="white"/>
<path d="M32 49C24.2644 49 17.7356 43.8333 15.6762 36.7626C17.3744 39.0179 20.2449 40.5 23.5 40.5C25.5657 40.5 27.2429 39.9031 28.6753 38.8905C29.6626 38.1926 30.7909 37.6667 32 37.6667C33.7794 37.6667 35.3672 38.4868 36.406 39.7696L33.3568 40.5866C32.1015 40.923 31.3566 42.2133 31.6929 43.4685C32.0293 44.7238 33.3196 45.4687 34.5749 45.1324L37.5798 44.3272C37.1099 46.9829 34.7906 49 32 49Z" fill="white"/>
<path d="M37.6667 32C37.6667 30.2206 38.4868 28.6329 39.7696 27.594L40.5867 30.6432C40.9231 31.8985 42.2133 32.6434 43.4686 32.3071C44.7238 31.9707 45.4688 30.6805 45.1324 29.4252L44.3272 26.4202C46.9829 26.89 49 29.2095 49 32C49 39.7356 43.8333 46.2644 36.7626 48.3238C39.0179 46.6256 40.5 43.7551 40.5 40.5C40.5 38.4343 39.9031 36.7571 38.8905 35.3247C38.1926 34.3374 37.6667 33.2091 37.6667 32Z" fill="white"/>
</svg>
